<svg xmlns="http://www.w3.org/2000/svg" version="1.1" xmlns:xlink="http://www.w3.org/1999/xlink" xmlns:svgjs="http://svgjs.dev/svgjs" width="73" height="56" viewBox="0 0 395.7240051269531 300" class="svg-animations " style="background-color: rgb(49, 68, 108);"><svg viewBox="0 0 136.98599243164062 139" width="100" height="100" x="32.97700042724608" y="100" style="fill: rgb(255, 255, 255);"><svg width="137" height="134" viewBox="0 0 137 134" xmlns="http://www.w3.org/2000/svg">
	<path d="M53.5663 34.6963C30.6231 39.316 13.2852 59.5908 13.2852 83.8273C13.2852 111.464 35.8162 133.959 63.5267 133.959C91.2372 133.959 113.755 111.464 113.755 83.8273C113.755 70.681 108.658 58.7135 100.332 49.7619C103.533 55.2178 105.388 61.5648 105.388 68.3505C105.388 88.6801 88.8742 105.158 68.5001 105.158C48.1259 105.158 31.6123 88.6801 31.6123 68.3505C31.6123 53.3261 40.6384 40.4127 53.5663 34.6963Z"/>
	<path d="M68.5 0C30.6643 0 0 30.5972 0 68.3503C0 84.3343 5.50913 99.0298 14.7276 110.668C10.3039 102.704 7.78971 93.5601 7.78971 83.8271C7.78971 53.1613 32.7937 28.212 63.5267 28.212C94.2596 28.212 119.25 53.1613 119.25 83.8271C119.25 105.911 106.281 125.021 87.5415 134C116.104 125.761 136.986 99.4959 136.986 68.3503C137 30.5972 106.336 0 68.5 0Z"/>
	</svg></svg><svg x="142.97700042724608" y="132.7849998474121" style="fill: rgb(255, 255, 255);"><path d="M5.38 26L1.15 0.08L4.16 0.08L6.94 18.70L10.43 0.18L12.99 0.18L16.51 18.80L19.23 0.08L22.18 0.08L18.02 26L15.39 26L11.78 6.80L8.13 26L5.38 26ZM29.86 26.26Q27.71 26.26 26.53 25.44Q25.34 24.62 24.86 23.02Q24.38 21.42 24.38 18.86L24.38 18.86L24.38 14.64Q24.38 10.80 25.58 9.02Q26.78 7.25 29.86 7.25L29.86 7.25Q32.10 7.25 33.23 8.18Q34.37 9.10 34.74 10.78Q35.10 12.46 35.10 15.31L35.10 15.31L35.10 16.82L27.81 16.82L27.81 20.53Q27.81 22.22 28.30 22.98Q28.80 23.73 29.89 23.73L29.89 23.73Q30.98 23.73 31.36 22.98Q31.74 22.22 31.74 20.69L31.74 20.69L31.74 19.57L35.07 19.57L35.07 20.27Q35.07 23.18 33.82 24.72Q32.58 26.26 29.86 26.26L29.86 26.26ZM27.81 14.96L31.74 14.96L31.74 13.30Q31.74 11.41 31.38 10.59Q31.01 9.78 29.82 9.78L29.82 9.78Q28.99 9.78 28.56 10.16Q28.13 10.54 27.97 11.42Q27.81 12.30 27.81 13.97L27.81 13.97L27.81 14.96ZM43.14 26.26Q39.14 26.26 39.14 21.84L39.14 21.84L39.14 9.78L37.18 9.78L37.18 7.50L39.14 7.50L39.14 2.10L42.56 2.10L42.56 7.50L45.54 7.50L45.54 9.78L42.56 9.78L42.56 21.62Q42.56 22.74 42.91 23.18Q43.26 23.63 44.26 23.63L44.26 23.63Q44.90 23.63 45.50 23.54L45.50 23.54L45.50 26.06Q44.22 26.26 43.14 26.26L43.14 26.26ZM52.99 26.26Q48.99 26.26 48.99 21.84L48.99 21.84L48.99 9.78L47.04 9.78L47.04 7.50L48.99 7.50L48.99 2.10L52.42 2.10L52.42 7.50L55.39 7.50L55.39 9.78L52.42 9.78L52.42 21.62Q52.42 22.74 52.77 23.18Q53.12 23.63 54.11 23.63L54.11 23.63Q54.75 23.63 55.36 23.54L55.36 23.54L55.36 26.06Q54.08 26.26 52.99 26.26L52.99 26.26ZM63.04 26.26Q60.90 26.26 59.71 25.44Q58.53 24.62 58.05 23.02Q57.57 21.42 57.57 18.86L57.57 18.86L57.57 14.64Q57.57 10.80 58.77 9.02Q59.97 7.25 63.04 7.25L63.04 7.25Q65.28 7.25 66.42 8.18Q67.55 9.10 67.92 10.78Q68.29 12.46 68.29 15.31L68.29 15.31L68.29 16.82L60.99 16.82L60.99 20.53Q60.99 22.22 61.49 22.98Q61.98 23.73 63.07 23.73L63.07 23.73Q64.16 23.73 64.54 22.98Q64.93 22.22 64.93 20.69L64.93 20.69L64.93 19.57L68.26 19.57L68.26 20.27Q68.26 23.18 67.01 24.72Q65.76 26.26 63.04 26.26L63.04 26.26ZM60.99 14.96L64.93 14.96L64.93 13.30Q64.93 11.41 64.56 10.59Q64.19 9.78 63.01 9.78L63.01 9.78Q62.18 9.78 61.74 10.16Q61.31 10.54 61.15 11.42Q60.99 12.30 60.99 13.97L60.99 13.97L60.99 14.96ZM71.49 26L71.49 7.50L74.91 7.50L74.91 10.13Q75.87 8.56 76.88 7.92Q77.89 7.28 79.01 7.28L79.01 7.28Q79.30 7.28 79.55 7.31L79.55 7.31L79.55 11.09Q78.53 10.70 77.66 10.70L77.66 10.70Q76.83 10.70 76.18 11.10Q75.52 11.50 74.91 12.50L74.91 12.50L74.91 26L71.49 26ZM89.22 4.75L89.22 1.17L92.64 1.17L92.64 4.75L89.22 4.75ZM89.22 26L89.22 7.50L92.64 7.50L92.64 26L89.22 26ZM96.32 26L96.32 7.50L99.74 7.50L99.74 9.33Q101.95 7.25 104.26 7.25L104.26 7.25Q105.76 7.25 106.40 8.34Q107.04 9.42 107.04 11.02L107.04 11.02L107.04 26L103.62 26L103.62 12.02Q103.62 10.96 103.30 10.45Q102.98 9.94 102.14 9.94L102.14 9.94Q101.12 9.94 99.74 11.09L99.74 11.09L99.74 26L96.32 26ZM124.61 26.29Q120.80 26.29 119.15 24.13Q117.50 21.97 117.50 17.87L117.50 17.87L117.50 8.05Q117.50 4.02 119.17 1.94Q120.83-0.14 124.61-0.14L124.61-0.14Q128.38-0.14 130.03 1.95Q131.68 4.05 131.68 8.05L131.68 8.05L131.68 17.90Q131.68 21.94 130.02 24.11Q128.35 26.29 124.61 26.29L124.61 26.29ZM124.61 23.44Q126.62 23.44 127.33 22.26Q128.03 21.07 128.03 18.67L128.03 18.67L128.03 7.31Q128.03 4.94 127.33 3.81Q126.62 2.67 124.61 2.67L124.61 2.67Q122.56 2.67 121.86 3.81Q121.15 4.94 121.15 7.31L121.15 7.31L121.15 18.67Q121.15 21.07 121.86 22.26Q122.56 23.44 124.61 23.44L124.61 23.44ZM136.03 26L136.03 10.03L133.82 10.03L133.82 7.50L136.03 7.50L136.03 6.54Q136.03 4.62 136.32 3.46Q136.61 2.29 137.49 1.65Q138.37 1.01 140.03 1.01L140.03 1.01Q141.15 1.01 142.27 1.23L142.27 1.23L142.27 3.73Q141.63 3.57 140.99 3.57L140.99 3.57Q140.06 3.57 139.76 4.16Q139.46 4.75 139.46 5.97L139.46 5.97L139.46 7.50L142.27 7.50L142.27 10.03L139.46 10.03L139.46 26L136.03 26ZM144.38 26L144.38 10.03L142.18 10.03L142.18 7.50L144.38 7.50L144.38 6.54Q144.38 4.62 144.67 3.46Q144.96 2.29 145.84 1.65Q146.72 1.01 148.38 1.01L148.38 1.01Q149.50 1.01 150.62 1.23L150.62 1.23L150.62 3.73Q149.98 3.57 149.34 3.57L149.34 3.57Q148.42 3.57 148.11 4.16Q147.81 4.75 147.81 5.97L147.81 5.97L147.81 7.50L150.62 7.50L150.62 10.03L147.81 10.03L147.81 26L144.38 26ZM152.58 26L152.58 0.08L156 0.08L156 9.42Q158.30 7.25 160.64 7.25L160.64 7.25Q162.14 7.25 162.77 8.34Q163.39 9.42 163.39 11.02L163.39 11.02L163.39 26L159.97 26L159.97 12.02Q159.97 10.96 159.65 10.45Q159.33 9.94 158.50 9.94L158.50 9.94Q157.38 9.94 156 11.15L156 11.15L156 26L152.58 26ZM171.84 26.26Q169.70 26.26 168.51 25.44Q167.33 24.62 166.85 23.02Q166.37 21.42 166.37 18.86L166.37 18.86L166.37 14.64Q166.37 10.80 167.57 9.02Q168.77 7.25 171.84 7.25L171.84 7.25Q174.08 7.25 175.22 8.18Q176.35 9.10 176.72 10.78Q177.09 12.46 177.09 15.31L177.09 15.31L177.09 16.82L169.79 16.82L169.79 20.53Q169.79 22.22 170.29 22.98Q170.78 23.73 171.87 23.73L171.87 23.73Q172.96 23.73 173.34 22.98Q173.73 22.22 173.73 20.69L173.73 20.69L173.73 19.57L177.06 19.57L177.06 20.27Q177.06 23.18 175.81 24.72Q174.56 26.26 171.84 26.26L171.84 26.26ZM169.79 14.96L173.73 14.96L173.73 13.30Q173.73 11.41 173.36 10.59Q172.99 9.78 171.81 9.78L171.81 9.78Q170.98 9.78 170.54 10.16Q170.11 10.54 169.95 11.42Q169.79 12.30 169.79 13.97L169.79 13.97L169.79 14.96ZM180.42 4.75L180.42 1.17L183.84 1.17L183.84 4.75L180.42 4.75ZM180.42 26L180.42 7.50L183.84 7.50L183.84 26L180.42 26ZM187.52 26L187.52 7.50L190.69 7.50L190.69 9.26Q191.62 8.24 192.72 7.71Q193.82 7.18 195.04 7.18L195.04 7.18Q197.41 7.18 198.05 9.52L198.05 9.52Q199.97 7.18 202.66 7.18L202.66 7.18Q204.10 7.18 205.01 8.24Q205.92 9.30 205.92 11.47L205.92 11.47L205.92 26L202.78 26L202.78 11.70Q202.78 10.42 202.37 9.92Q201.95 9.42 201.18 9.42L201.18 9.42Q200.48 9.42 199.71 9.82Q198.94 10.22 198.30 10.93L198.30 10.93L198.30 11.47L198.30 26L195.17 26L195.17 11.70Q195.17 10.42 194.75 9.92Q194.34 9.42 193.57 9.42L193.57 9.42Q192.90 9.42 192.13 9.82Q191.36 10.22 190.69 10.93L190.69 10.93L190.69 26L187.52 26Z"/></svg><text fill="#ffffff" font-family="Tahoma" font-size="16px" x="175.43995971679686" y="182.43728006729464"><tspan dy="0" x="175.43995971679686">☀️🌬️ PC-CDN 🌦️☂️</tspan></text></svg>
