<?xml version="1.0" encoding="iso-8859-1"?>
<!-- Generator: Adobe Illustrator 16.0.0, SVG Export Plug-In . SVG Version: 6.00 Build 0)  
https://icon-icons.com/de/download/64259/SVG/512/
-->
<!DOCTYPE svg PUBLIC "-//W3C//DTD SVG 1.1//EN" "http://www.w3.org/Graphics/SVG/1.1/DTD/svg11.dtd">
<svg version="1.1" id="Capa_1" xmlns="http://www.w3.org/2000/svg" xmlns:xlink="http://www.w3.org/1999/xlink" x="0px" y="0px"
	 width="365.4px" height="365.4px" viewBox="0 0 365.4 365.4" style="enable-background:new 0 0 365.4 365.4;" xml:space="preserve"
	>
<g fill="#F9CF00">
	<g>
		<path d="M57.4,181.8c0-5.699-3.8-9.6-9.6-9.6H9.6c-5.7,0-9.6,5.7-9.6,9.6c0,5.7,3.8,9.601,9.6,9.601h38.2
			C53.6,191.3,57.4,187.5,57.4,181.8z"/>
		<path d="M80.4,269.7l-26.8,26.8c-3.8,3.8-3.8,9.601,0,13.4c3.8,3.8,9.6,3.8,13.4,0l26.8-26.8c3.8-3.801,3.8-9.601,0-13.4
			C90,267.8,84.2,265.9,80.4,269.7z"/>
		<path d="M283.101,93.8L309.9,67c3.8-3.8,3.8-9.6,0-13.4c-3.8-3.8-9.601-3.8-13.4,0l-26.8,26.8c-3.8,3.8-3.8,9.6,0,13.4
			C273.601,97.6,281.2,97.6,283.101,93.8z"/>
		<path d="M181.8,57.4c5.7,0,9.601-3.8,9.601-9.6V9.6c0-5.7-3.8-9.6-9.601-9.6c-3.8,0-9.6,3.8-9.6,9.6v38.2
			C172.2,53.6,177.9,57.4,181.8,57.4z"/>
		<path d="M80.4,93.8c3.8,3.8,9.6,3.8,13.4,0c3.8-3.8,3.8-9.6,0-13.4L67,53.6c-3.8-3.8-9.6-3.8-13.4,0c-3.8,3.8-3.8,9.6,0,13.4
			L80.4,93.8z"/>
		<path d="M181.8,308c-5.699,0-9.6,3.8-9.6,9.601V355.8c0,5.7,3.8,9.601,9.6,9.601c5.801,0,9.601-3.8,9.601-9.601v-38.199
			C191.3,311.8,187.5,308,181.8,308z"/>
		<path d="M355.8,172.2h-38.199c-5.7,0-9.601,3.8-9.601,9.6c0,5.801,3.8,9.601,9.601,9.601H355.8c5.7,0,9.601-3.8,9.601-9.601
			C365.4,177.9,359.601,172.2,355.8,172.2z"/>
		<path d="M283.101,269.7c-3.801-3.8-9.601-3.8-13.4,0s-3.8,9.6,0,13.4l26.8,26.8c3.8,3.8,9.601,3.8,13.4,0s3.8-9.601,0-13.4
			L283.101,269.7z"/>
		<circle cx="181.8" cy="181.8" r="105.2"/>
	</g>
</g>
<g>
</g>
<g>
</g>
<g>
</g>
<g>
</g>
<g>
</g>
<g>
</g>
<g>
</g>
<g>
</g>
<g>
</g>
<g>
</g>
<g>
</g>
<g>
</g>
<g>
</g>
<g>
</g>
<g>
</g>
</svg>
